<?xml version="1.0" standalone="no"?><!DOCTYPE svg PUBLIC "-//W3C//DTD SVG 1.1//EN" "http://www.w3.org/Graphics/SVG/1.1/DTD/svg11.dtd"><svg t="1576570404847" class="icon" viewBox="0 0 1163 1024" version="1.1" xmlns="http://www.w3.org/2000/svg" p-id="4382" xmlns:xlink="http://www.w3.org/1999/xlink" width="227.1484375" height="200"><defs><style type="text/css"></style></defs><path d="M1110.197973 1024H55.869057a59.859704 59.859704 0 0 1-55.869057-54.272798V54.272798A59.859704 59.859704 0 0 1 55.869057 0h1054.328916a58.263445 58.263445 0 0 1 53.474669 54.272798v915.454404a58.263445 58.263445 0 0 1-53.474669 54.272798zM109.343726 54.272798a59.061574 59.061574 0 0 0-53.474669 55.869057 49.484022 49.484022 0 0 0 53.474669 54.272798c39.906469 0 53.474669-13.5682 53.474668-54.272798a50.282151 50.282151 0 0 0-53.474668-55.869057z m159.625876 0a61.455963 61.455963 0 0 0-55.070927 55.869057 50.282151 50.282151 0 0 0 55.070927 54.272798c40.704599 0 54.272798-13.5682 54.272799-54.272798a51.080281 51.080281 0 0 0-51.87841-55.869057z m159.625877 0a59.061574 59.061574 0 0 0-53.474668 55.869057 49.484022 49.484022 0 0 0 53.474668 54.272798c42.300857 0 55.070928-13.5682 55.070928-54.272798a50.282151 50.282151 0 0 0-55.070928-55.869057z m677.611848 164.414653H55.869057v751.039751h1054.328916V218.687451zM405.449727 546.718628h122.911925V423.008574a57.465316 57.465316 0 0 1 53.474669-54.272798 59.859704 59.859704 0 0 1 56.667186 54.272798v123.710054h118.921279a49.484022 49.484022 0 0 1 54.272798 54.272798c0 40.704599-13.5682 54.272798-54.272798 54.272798H638.503507v137.278255a59.859704 59.859704 0 0 1-55.070927 54.272798 57.465316 57.465316 0 0 1-53.474669-54.272798V655.264224H405.449727c-39.906469 0-53.474669-13.5682-53.474669-54.272798a49.484022 49.484022 0 0 1 53.474669-54.272798" fill="#67C6DD" p-id="4383"></path></svg>