<?xml version="1.0" standalone="no"?><!DOCTYPE svg PUBLIC "-//W3C//DTD SVG 1.1//EN" "http://www.w3.org/Graphics/SVG/1.1/DTD/svg11.dtd"><svg t="1575357784744" class="icon" viewBox="0 0 1027 1024" version="1.1" xmlns="http://www.w3.org/2000/svg" p-id="3887" xmlns:xlink="http://www.w3.org/1999/xlink" width="200.5859375" height="200"><defs><style type="text/css"></style></defs><path d="M996.45 186.182c27.927-27.927 37.236-74.473 27.927-121.018C996.45 27.927 959.213 0 912.667 0h-800.58C65.54 0 28.303 27.927 9.686 65.164s-9.31 93.09 18.617 121.018l297.891 288.582v325.818c0 37.236 18.618 65.163 46.546 83.782l158.254 121.018c9.31 9.309 37.237 18.618 55.855 18.618 18.618 0 27.927 0 46.545-9.31 37.237-18.617 55.855-55.854 55.855-93.09V484.073l307.2-297.891zM633.395 418.909c-9.309 9.31-18.618 37.236-18.618 55.855V912.29c0 9.309-9.31 18.618-9.31 18.618s-9.308 9.31-18.617 0L437.904 809.891c-9.309 0-9.309-9.31-9.309-18.618v-316.51c0-18.618-9.309-46.545-27.927-55.854L102.777 130.327c-9.31-9.309-9.31-18.618-9.31-18.618 0-9.309 9.31-18.618 18.62-18.618h791.272c18.618 0 27.927 9.309 27.927 9.309v18.618L633.396 418.91z m344.437 46.546c27.927 0 46.545 18.618 46.545 46.545s-18.618 46.545-46.545 46.545H791.65c-27.928 0-46.546-18.618-46.546-46.545s18.618-46.545 46.546-46.545h186.182z m0 186.181c27.927 0 46.545 18.619 46.545 46.546s-18.618 46.545-46.545 46.545H791.65c-27.928 0-46.546-18.618-46.546-46.545s18.618-46.546 46.546-46.546h186.182z m0 186.182c27.927 0 46.545 18.618 46.545 46.546s-18.618 46.545-46.545 46.545H791.65c-27.928 0-46.546-18.618-46.546-46.545s18.618-46.546 46.546-46.546h186.182z" p-id="3888"></path></svg>