<?xml version="1.0" standalone="no"?><!DOCTYPE svg PUBLIC "-//W3C//DTD SVG 1.1//EN" "http://www.w3.org/Graphics/SVG/1.1/DTD/svg11.dtd"><svg t="1575361595442" class="icon" viewBox="0 0 1024 1024" version="1.1" xmlns="http://www.w3.org/2000/svg" p-id="7352" xmlns:xlink="http://www.w3.org/1999/xlink" width="200" height="200"><defs><style type="text/css"></style></defs><path d="M62.86082489 603.9808671h99.88441018c15.39827903 0 27.9349299 12.53665076 27.9349299 27.93493348v345.03045711c0 15.39827903-12.53665076 27.9349299-27.9349299 27.93492984h-99.88441018c-15.39827903 0-27.9349299-12.53665076-27.93492986-27.93492984V631.91580058c0-15.53454809 12.53665076-27.9349299 27.93492986-27.93493348z m266.94892036-149.07714099h99.88441017c15.39827903 0 27.9349299 12.53665076 27.93492993 27.9349335v494.10759808c0 15.39827903-12.53665076 27.9349299-27.93492993 27.93492984h-99.88441017c-15.39827903 0-27.9349299-12.53665076-27.93492987-27.93492984v-494.10759808c0-15.39827903 12.53665076-27.9349299 27.93492987-27.9349335z m280.71198535 85.30374185h99.8844102c15.39827903 0 27.9349299 12.53665076 27.93492989 27.93492985v408.94012892c0 15.39827903-12.53665076 27.9349299-27.93492989 27.93492984h-99.8844102c-15.39827903 0-27.9349299-12.53665076-27.93492983-27.93492984v-408.94012892c-0.13626908-15.39827903 12.4003854-27.9349299 27.93492983-27.93492985z m248.28020958-208.08116707h99.88441021c15.39827903 0 27.9349299 12.53665076 27.93492982 27.93492989v617.02129595c0 15.39827903-12.53665076 27.9349299-27.93492982 27.93492984h-99.88441021c-15.39827903 0-27.9349299-12.53665076-27.93492981-27.93492984v-617.02129595c0-15.39827903 12.4003854-27.9349299 27.93492981-27.93492989z m50.01034148-310.96347086c-38.56383215 0-69.90545918 31.20536157-69.90546281 69.90546278 0 3.81550433 1.63521406 7.08593244 2.18029023 10.76516772l-139.40211843 135.04154155c-10.90143678-6.949667-23.02928406-11.99157825-36.79234539-11.99158191-26.84478836 0-49.46526886 15.67081355-61.18431261 37.88249411l-158.07082561-31.06909613c-8.72115011-28.75253685-34.33952432-50.01033776-65.81742032-50.01033783-34.06698987 0-61.04804363 24.80076711-67.31636903 57.09627392L154.29662305 333.48898054c-11.71904378-8.85741556-25.61837414-15.12574457-41.42546038-15.12574098-39.65397363 0-71.67694224 33.11311375-69.76919008 73.31215633 1.77148308 36.79234902 32.43177215 66.08995846 69.2241212 66.36249295 34.33952432 0.27253442 61.59311613-24.66449813 67.86143791-57.09627029l158.20709465-94.84249535c11.71904378 8.85741556 25.61837414 15.12574457 41.42546037 15.12574095 18.80497618 0 35.56593482-7.631005 48.10258562-19.6225832l182.46278922 35.97473834c12.80918889 14.85320649 31.06909254 24.66449813 52.19062808 24.66449811 34.61205876 0 62.13818508-25.75464325 67.58890349-58.86775338l157.7982911-146.89685433c6.67712892 2.18028661 13.35425785 4.22430784 20.71272834 4.22430781 38.56383215 0 69.90545918-31.20536157 69.90545916-69.9054628 0-38.29129401-31.20536157-69.63292466-69.76919007-69.63292467z m0 0" p-id="7353"></path></svg>