<?xml version="1.0" standalone="no"?><!DOCTYPE svg PUBLIC "-//W3C//DTD SVG 1.1//EN" "http://www.w3.org/Graphics/SVG/1.1/DTD/svg11.dtd"><svg t="1575357797988" class="icon" viewBox="0 0 1024 1024" version="1.1" xmlns="http://www.w3.org/2000/svg" p-id="4699" xmlns:xlink="http://www.w3.org/1999/xlink" width="200" height="200"><defs><style type="text/css"></style></defs><path d="M503.8 1024c251.3 0 426.9-169.4 461.6-414.9C1026.2 179.2 787.3 14.2 764.2 0c-115.1 285.2-235 158.1-260.5 158.1C526.6 111.8 624.3 38.5 606.9 49c-4.3 2.6-192.6-27.1-399.5 165.3C72.4 339.9 48.7 498.7 48.7 591.1c0.1 239.1 203.8 432.9 455.1 432.9z m-236-552.6s-56.5 165.2 60.8 152.8C445.9 611.8 472 479.5 641.4 479.5c0 0-141.5 208.8-52.5 248.1 89 39.3 112.5-8.3 195.5-66.1-10.9 93-47.9 281.1-321.5 260.5-273.7-20.8-403.6-252.2-195.1-450.6z" p-id="4700"></path></svg>